<?xml version="1.0" encoding="UTF-8" standalone="no"?>
<!DOCTYPE svg PUBLIC "-//W3C//DTD SVG 1.1//EN"
 "http://www.w3.org/Graphics/SVG/1.1/DTD/svg11.dtd">
<!-- Generated by graphviz version 2.50.0 (0)
 -->
<!-- Title: g Pages: 1 -->
<svg width="180pt" height="332pt"
 viewBox="0.00 0.00 179.50 332.00" xmlns="http://www.w3.org/2000/svg" xmlns:xlink="http://www.w3.org/1999/xlink">
<g id="graph0" class="graph" transform="scale(1 1) rotate(0) translate(4 328)">
<title>g</title>
<polygon fill="white" stroke="transparent" points="-4,4 -4,-328 175.5,-328 175.5,4 -4,4"/>
<!-- a -->
<g id="node1" class="node">
<title>a</title>
<polygon fill="lightgrey" stroke="black" points="76.5,-324 22.5,-324 22.5,-288 76.5,-288 76.5,-324"/>
<text text-anchor="middle" x="49.5" y="-302.3" font-family="Times,serif" font-size="14.00">a</text>
</g>
<!-- b -->
<g id="node2" class="node">
<title>b</title>
<polygon fill="lightgrey" stroke="black" points="76.5,-252 22.5,-252 22.5,-216 76.5,-216 76.5,-252"/>
<text text-anchor="middle" x="49.5" y="-230.3" font-family="Times,serif" font-size="14.00">b</text>
</g>
<!-- a&#45;&gt;b -->
<g id="edge1" class="edge">
<title>a&#45;&gt;b</title>
<path fill="none" stroke="black" d="M49.5,-287.7C49.5,-279.98 49.5,-270.71 49.5,-262.11"/>
<polygon fill="black" stroke="black" points="53,-262.1 49.5,-252.1 46,-262.1 53,-262.1"/>
</g>
<!-- c -->
<g id="node3" class="node">
<title>c</title>
<polygon fill="#ffccff" stroke="#ffccff" points="99,-180 0,-180 0,-144 99,-144 99,-180"/>
<text text-anchor="middle" x="49.5" y="-158.3" font-family="Times,serif" font-size="14.00">c (changed)</text>
</g>
<!-- b&#45;&gt;c -->
<g id="edge2" class="edge">
<title>b&#45;&gt;c</title>
<path fill="none" stroke="black" d="M49.5,-215.7C49.5,-207.98 49.5,-198.71 49.5,-190.11"/>
<polygon fill="black" stroke="black" points="53,-190.1 49.5,-180.1 46,-190.1 53,-190.1"/>
</g>
<!-- e -->
<g id="node4" class="node">
<title>e</title>
<polygon fill="#ffcccc" stroke="#ffcccc" points="87.5,-108 33.5,-108 33.5,-72 87.5,-72 87.5,-108"/>
<text text-anchor="middle" x="60.5" y="-86.3" font-family="Times,serif" font-size="14.00">e</text>
</g>
<!-- c&#45;&gt;e -->
<g id="edge3" class="edge">
<title>c&#45;&gt;e</title>
<path fill="none" stroke="black" d="M52.22,-143.7C53.43,-135.98 54.89,-126.71 56.24,-118.11"/>
<polygon fill="black" stroke="black" points="59.72,-118.53 57.81,-108.1 52.8,-117.44 59.72,-118.53"/>
</g>
<!-- g -->
<g id="node7" class="node">
<title>g</title>
<polygon fill="#ffcccc" stroke="#ffcccc" points="139,-36 54,-36 54,0 139,0 139,-36"/>
<text text-anchor="middle" x="96.5" y="-14.3" font-family="Times,serif" font-size="14.00">g (target)</text>
</g>
<!-- e&#45;&gt;g -->
<g id="edge5" class="edge">
<title>e&#45;&gt;g</title>
<path fill="none" stroke="black" d="M69.4,-71.7C73.5,-63.73 78.45,-54.1 82.99,-45.26"/>
<polygon fill="black" stroke="black" points="86.24,-46.6 87.7,-36.1 80.02,-43.4 86.24,-46.6"/>
</g>
<!-- d -->
<g id="node5" class="node">
<title>d</title>
<polygon fill="lightgrey" stroke="black" points="171.5,-180 117.5,-180 117.5,-144 171.5,-144 171.5,-180"/>
<text text-anchor="middle" x="144.5" y="-158.3" font-family="Times,serif" font-size="14.00">d</text>
</g>
<!-- f -->
<g id="node6" class="node">
<title>f</title>
<polygon fill="lightgrey" stroke="black" points="165.5,-108 111.5,-108 111.5,-72 165.5,-72 165.5,-108"/>
<text text-anchor="middle" x="138.5" y="-86.3" font-family="Times,serif" font-size="14.00">f</text>
</g>
<!-- d&#45;&gt;f -->
<g id="edge4" class="edge">
<title>d&#45;&gt;f</title>
<path fill="none" stroke="black" d="M143.02,-143.7C142.36,-135.98 141.56,-126.71 140.82,-118.11"/>
<polygon fill="black" stroke="black" points="144.31,-117.77 139.97,-108.1 137.33,-118.37 144.31,-117.77"/>
</g>
<!-- f&#45;&gt;g -->
<g id="edge6" class="edge">
<title>f&#45;&gt;g</title>
<path fill="none" stroke="black" d="M128.12,-71.7C123.24,-63.56 117.31,-53.69 111.92,-44.7"/>
<polygon fill="black" stroke="black" points="114.91,-42.88 106.76,-36.1 108.91,-46.48 114.91,-42.88"/>
</g>
</g>
</svg>
